<?xml version="1.0" encoding="UTF-8" standalone="no"?>
<!DOCTYPE svg PUBLIC "-//W3C//DTD SVG 1.1//EN" "http://www.w3.org/Graphics/SVG/1.1/DTD/svg11.dtd">
<!-- Generert med Microsoft Visio, SVG Export klient-tjener-apache-php-mysql.svg Page-1 -->
<svg xmlns="http://www.w3.org/2000/svg" xmlns:xlink="http://www.w3.org/1999/xlink" xmlns:ev="http://www.w3.org/2001/xml-events"
		xmlns:v="http://schemas.microsoft.com/visio/2003/SVGExtensions/" width="11.6929in" height="8.26772in"
		viewBox="0 0 841.89 595.276" xml:space="preserve" color-interpolation-filters="sRGB" class="st21">
	<v:documentProperties v:langID="1044" v:metric="true" v:viewMarkup="false">
		<v:userDefs>
			<v:ud v:nameU="msvSubprocessMaster" v:prompt="" v:val="VT4(Rectangle)"/>
			<v:ud v:nameU="msvNoAutoConnect" v:val="VT0(1):26"/>
		</v:userDefs>
	</v:documentProperties>

	<style type="text/css">
	<![CDATA[
		.st1 {visibility:visible}
		.st2 {fill:none;filter:url(#filter_2);stroke:#5b9bd5;stroke-dasharray:9,9;stroke-opacity:0.22}
		.st3 {fill:none;stroke:#c8c8c8;stroke-dasharray:9,9;stroke-width:3}
		.st4 {fill:none;filter:url(#filter_2);stroke:#5b9bd5;stroke-opacity:0.22}
		.st5 {stroke:#c7c8c8;stroke-width:0.25}
		.st6 {fill:#5b9bd5;fill-opacity:0.22;filter:url(#filter_2);stroke:#5b9bd5;stroke-opacity:0.22}
		.st7 {fill:#feffff;stroke:#c7c8c8;stroke-width:0.25}
		.st8 {fill:#28669d;stroke:#c7c8c8;stroke-width:0.25}
		.st9 {fill:#5b9bd5;stroke:#c7c8c8;stroke-width:0.25}
		.st10 {fill:none;stroke:none;stroke-width:0.25}
		.st11 {fill:#5b9bd5;font-family:Calibri;font-size:1.99999em;font-weight:bold}
		.st12 {fill:#5b9bd5;font-family:Calibri;font-size:1.33333em;font-weight:bold}
		.st13 {fill:#4a80b1;stroke:none;stroke-linecap:butt;stroke-width:0.75}
		.st14 {fill:#feffff;font-family:Calibri;font-size:1.33333em}
		.st15 {fill:#70ad47;stroke:#000000;stroke-width:0.25}
		.st16 {marker-end:url(#mrkr4-104);stroke:#000000;stroke-linecap:round;stroke-linejoin:round;stroke-width:3}
		.st17 {fill:#000000;fill-opacity:1;stroke:#000000;stroke-opacity:1;stroke-width:0.54347826086957}
		.st18 {fill:#ffffff;stroke:none;stroke-linecap:butt;stroke-width:7.2}
		.st19 {fill:#4f87bb;font-family:Calibri;font-size:1.00001em}
		.st20 {marker-start:url(#mrkr4-112);stroke:#000000;stroke-linecap:round;stroke-linejoin:round;stroke-width:3}
		.st21 {fill:none;fill-rule:evenodd;font-size:12px;overflow:visible;stroke-linecap:square;stroke-miterlimit:3}
	]]>
	</style>

	<defs id="Markers">
		<g id="lend4">
			<path d="M 2 1 L 0 0 L 2 -1 L 2 1 " style="stroke:none"/>
		</g>
		<marker id="mrkr4-104" class="st17" v:arrowType="4" v:arrowSize="2" v:setback="3.68" refX="-3.68" orient="auto"
				markerUnits="strokeWidth" overflow="visible">
			<use xlink:href="#lend4" transform="scale(-1.84,-1.84) "/>
		</marker>
		<marker id="mrkr4-112" class="st17" v:arrowType="4" v:arrowSize="2" v:setback="3.56" refX="3.56" orient="auto"
				markerUnits="strokeWidth" overflow="visible">
			<use xlink:href="#lend4" transform="scale(1.84) "/>
		</marker>
	</defs>
	<defs id="Filters">
		<filter id="filter_2">
			<feGaussianBlur stdDeviation="2"/>
		</filter>
	</defs>
	<g v:mID="0" v:index="1" v:groupContext="foregroundPage">
		<v:userDefs>
			<v:ud v:nameU="msvThemeOrder" v:val="VT0(0):26"/>
		</v:userDefs>
		<title>Side-1</title>
		<v:pageProperties v:drawingScale="0.0393701" v:pageScale="0.0393701" v:drawingUnits="24" v:shadowOffsetX="8.50394"
				v:shadowOffsetY="-8.50394"/>
		<v:layer v:name="Kobling" v:index="0"/>
		<g id="shape1-1" v:mID="1" v:groupContext="shape" transform="translate(289.134,-119.055)">
			<title>Ark.1</title>
			<g id="shadow1-2" v:groupContext="shadow" v:shadowOffsetX="0.345598" v:shadowOffsetY="-1.97279" v:shadowType="1"
					transform="matrix(1,0,0,1,0.345598,1.97279)" class="st1">
				<rect x="0" y="300.472" width="490.394" height="294.803" rx="11.3386" ry="11.3386" class="st2"/>
			</g>
			<rect x="0" y="300.472" width="490.394" height="294.803" rx="11.3386" ry="11.3386" class="st3"/>
		</g>
		<g id="shape2-6" v:mID="2" v:groupContext="shape" transform="translate(320.06,-136.063)">
			<title>Ark.2</title>
			<g id="shadow2-7" v:groupContext="shadow" v:shadowOffsetX="0.345598" v:shadowOffsetY="-1.97279" v:shadowType="1"
					transform="matrix(1,0,0,1,0.345598,1.97279)" class="st1">
				<rect x="0" y="334.488" width="195.846" height="260.787" rx="11.3386" ry="11.3386" class="st2"/>
			</g>
			<rect x="0" y="334.488" width="195.846" height="260.787" rx="11.3386" ry="11.3386" class="st3"/>
		</g>
		<g id="group3-11" transform="translate(325.984,-321.732)" v:mID="3" v:groupContext="group">
			<v:custProps>
				<v:cp v:nameU="AssetNumber" v:lbl="Gjenstandsnummer" v:prompt="" v:type="0" v:format="" v:sortKey="Asset"
						v:invis="false" v:ask="false" v:langID="1044" v:cal="0"/>
				<v:cp v:nameU="SerialNumber" v:lbl="Serienummer" v:prompt="" v:type="0" v:format="" v:sortKey="Asset"
						v:invis="false" v:ask="false" v:langID="1044" v:cal="0"/>
				<v:cp v:nameU="Location" v:lbl="Plassering" v:prompt="" v:type="0" v:format="" v:sortKey="Asset" v:invis="false"
						v:ask="false" v:langID="1044" v:cal="0"/>
				<v:cp v:nameU="Building" v:lbl="Bygning" v:prompt="" v:type="0" v:format="" v:sortKey="Asset" v:invis="false"
						v:ask="false" v:langID="1044" v:cal="0"/>
				<v:cp v:nameU="Room" v:lbl="Rom" v:prompt="" v:type="0" v:format="" v:sortKey="Asset" v:invis="false" v:ask="false"
						v:langID="1044" v:cal="0"/>
				<v:cp v:nameU="Manufacturer" v:lbl="Produsent" v:prompt="" v:type="0" v:format="" v:sortKey="Equipment"
						v:invis="false" v:ask="false" v:langID="1044" v:cal="0"/>
				<v:cp v:nameU="ProductNumber" v:lbl="Produktnummer" v:prompt="" v:type="0" v:format="" v:sortKey="Equipment"
						v:invis="false" v:ask="false" v:langID="1044" v:cal="0"/>
				<v:cp v:nameU="PartNumber" v:lbl="Delenummer" v:prompt="" v:type="0" v:format="" v:sortKey="Equipment"
						v:invis="false" v:ask="false" v:langID="1044" v:cal="0"/>
				<v:cp v:nameU="ProductDescription" v:lbl="Produktbeskrivelse" v:prompt="" v:type="0" v:format=""
						v:sortKey="Equipment" v:invis="false" v:ask="false" v:langID="1044" v:cal="0"/>
				<v:cp v:nameU="NetworkName" v:lbl="Nettverksnavn" v:prompt="" v:type="0" v:format="" v:sortKey="Network"
						v:invis="false" v:ask="false" v:langID="1044" v:cal="0"/>
				<v:cp v:nameU="IPAddress" v:lbl="IP-adresse" v:prompt="" v:type="0" v:format="" v:sortKey="Network" v:invis="false"
						v:ask="false" v:langID="1044" v:cal="0"/>
				<v:cp v:nameU="SubnetMask" v:lbl="Nettverksmaske" v:prompt="" v:type="0" v:format="" v:sortKey="Network"
						v:invis="false" v:ask="false" v:langID="1044" v:cal="0"/>
				<v:cp v:nameU="AdminInterface" v:lbl="Administrativt grensesnitt" v:prompt="" v:type="0" v:format=""
						v:sortKey="Network" v:invis="false" v:ask="false" v:langID="1044" v:cal="0"/>
				<v:cp v:nameU="NumberofPorts" v:lbl="Antall porter" v:prompt="" v:type="0" v:format="" v:sortKey="Network"
						v:invis="false" v:ask="false" v:langID="1044" v:cal="0"/>
				<v:cp v:nameU="CommunityString" v:lbl="Gruppestreng" v:prompt="" v:type="0" v:format="" v:sortKey="Network"
						v:invis="false" v:ask="false" v:langID="1044" v:cal="0"/>
				<v:cp v:nameU="NetworkDescription" v:lbl="Nettverksbeskrivelse" v:prompt="" v:type="0" v:format=""
						v:sortKey="Network" v:invis="false" v:ask="false" v:langID="1044" v:cal="0"/>
				<v:cp v:nameU="MACAddress" v:lbl="MAC-adresse" v:prompt="" v:type="0" v:format="" v:sortKey="Network"
						v:invis="false" v:ask="false" v:langID="1044" v:cal="0"/>
				<v:cp v:nameU="CPU" v:lbl="CPU" v:prompt="" v:type="0" v:format="" v:sortKey="Workstation" v:invis="false"
						v:ask="false" v:langID="1044" v:cal="0"/>
				<v:cp v:nameU="Memory" v:lbl="Minne" v:prompt="" v:type="0" v:format="" v:sortKey="Workstation" v:invis="false"
						v:ask="false" v:langID="1044" v:cal="0"/>
				<v:cp v:nameU="OperatingSystem" v:lbl="Operativsystem" v:prompt="" v:type="0" v:format="" v:sortKey="Workstation"
						v:invis="false" v:ask="false" v:langID="1044" v:cal="0"/>
				<v:cp v:nameU="HardDriveSize" v:lbl="Harddiskkapasitet" v:prompt="" v:type="0" v:format="" v:sortKey="Workstation"
						v:invis="false" v:ask="false" v:langID="1044" v:cal="0"/>
				<v:cp v:nameU="Department" v:lbl="Avdeling" v:prompt="" v:type="0" v:format="" v:sortKey="" v:invis="false"
						v:ask="false" v:langID="1044" v:cal="0"/>
				<v:cp v:nameU="ShapeClass" v:lbl="ShapeClass" v:prompt="" v:type="0" v:format="" v:sortKey="" v:invis="true"
						v:ask="false" v:langID="1044" v:cal="0" v:val="VT4(Utstyr)"/>
				<v:cp v:nameU="ShapeType" v:lbl="ShapeType" v:prompt="" v:type="0" v:format="" v:sortKey="" v:invis="true"
						v:ask="false" v:langID="1044" v:cal="0" v:val="VT4(Server)"/>
				<v:cp v:nameU="SubShapeType" v:lbl="SubShapeType" v:prompt="" v:type="0" v:format="" v:sortKey="" v:invis="true"
						v:ask="false" v:langID="1044" v:cal="0" v:val="VT4(Web)"/>
			</v:custProps>
			<v:userDefs>
				<v:ud v:nameU="visVersion" v:prompt="" v:val="VT0(15):26"/>
				<v:ud v:nameU="ShapeClass" v:prompt="" v:val="VT0(5):26"/>
				<v:ud v:nameU="SolSH" v:prompt="" v:val="VT15({BF0433D9-CD73-4EB5-8390-8653BE590246}):41"/>
				<v:ud v:nameU="visLegendShape" v:prompt="" v:val="VT0(2):26"/>
			</v:userDefs>
			<title>Webserver</title>
			<g id="shape4-12" v:mID="4" v:groupContext="shape" transform="translate(23.253,-15.502)">
				<title>Ark.4</title>
				<g id="shadow4-13" v:groupContext="shadow" v:shadowOffsetX="0.345598" v:shadowOffsetY="-1.97279" v:shadowType="1"
						transform="matrix(1,0,0,1,0.345598,1.97279)" class="st1">
					<path d="M0 595.28 L28.76 595.28" class="st4"/>
				</g>
				<path d="M0 595.28 L28.76 595.28" class="st5"/>
			</g>
			<g id="shape5-20" v:mID="5" v:groupContext="shape" transform="translate(52.0099,-2.94042)">
				<title>Ark.5</title>
				<g id="shadow5-21" v:groupContext="shadow" v:shadowOffsetX="0.345598" v:shadowOffsetY="-1.97279" v:shadowType="1"
						transform="matrix(1,0,0,1,0.345598,1.97279)" class="st1">
					<rect x="0" y="565.738" width="18.8563" height="29.5374" class="st6"/>
				</g>
				<rect x="0" y="565.738" width="18.8563" height="29.5374" class="st7"/>
			</g>
			<g id="shape6-25" v:mID="6" v:groupContext="shape" transform="translate(-3.59712E-013,-20.9733)">
				<title>Ark.6</title>
				<g id="shadow6-26" v:groupContext="shadow" v:shadowOffsetX="0.345598" v:shadowOffsetY="-1.97279" v:shadowType="1"
						transform="matrix(1,0,0,1,0.345598,1.97279)" class="st1">
					<ellipse cx="23.4762" cy="571.799" rx="23.4762" ry="23.4762" class="st6"/>
				</g>
				<ellipse cx="23.4762" cy="571.799" rx="23.4762" ry="23.4762" class="st8"/>
			</g>
			<g id="shape7-30" v:mID="7" v:groupContext="shape" transform="translate(0.960143,-7.78219)">
				<title>Ark.7</title>
				<g id="shadow7-31" v:groupContext="shadow" v:shadowOffsetX="0.345598" v:shadowOffsetY="-1.97279" v:shadowType="1"
						transform="matrix(1,0,0,1,0.345598,1.97279)" class="st1">
					<path d="M39.92 550.81 C40.58 553.1 40.95 555.52 40.97 558.02 L45.03 558.02 C44.97 555.49 44.49 553.06 43.66
								 550.81 L39.92 550.81 ZM40.96 559.2 C40.87 561.71 40.44 564.13 39.7 566.41 L43.66 566.41 C44.49 564.15
								 44.97 561.73 45.03 559.2 L40.96 559.2 ZM39.54 549.63 L43.18 549.63 C41.99 546.9 40.28 544.45 38.17
								 542.41 L35.76 542.41 C37.36 544.59 38.65 547.02 39.54 549.63 ZM39.3 567.59 C38.32 570.22 36.94 572.64
								 35.23 574.8 L38.17 574.8 C40.28 572.76 41.99 570.32 43.18 567.59 L39.3 567.59 ZM34.83 541.23 L36.86
								 541.23 C35.3 539.94 33.56 538.86 31.69 538.03 C32.82 539.01 33.87 540.08 34.83 541.23 ZM39.74 559.2
								 L32.22 559.2 C32.2 561.66 31.97 564.07 31.53 566.41 L38.44 566.41 C39.2 564.12 39.65 561.69 39.74
								 559.2 ZM38.66 550.81 L31.46 550.81 C31.92 553.15 32.17 555.56 32.22 558.02 L39.75 558.02 C39.73
								 555.54 39.34 553.1 38.66 550.81 ZM34.24 575.98 C32.95 577.43 31.51 578.74 29.94 579.88 C32.48 578.99
								 34.82 577.67 36.86 575.98 L34.24 575.98 ZM38.02 567.59 L31.3 567.59 C30.76 570.08 30 572.5 29.04
								 574.8 L33.78 574.8 C35.56 572.68 36.99 570.24 38.02 567.59 ZM28.88 542.41 C29.87 544.72 30.65 547.13
								 31.21 549.63 L38.28 549.63 C37.36 546.97 36.05 544.52 34.48 542.41 L28.88 542.41 ZM32.73 575.98
								 L28.52 575.98 C27.75 577.68 26.87 579.32 25.89 580.89 C25.94 580.88 25.98 580.87 26.03 580.87 C28.54
								 579.68 30.8 578.01 32.73 575.98 ZM28.41 536.86 C27.5 536.62 26.57 536.43 25.62 536.29 C26.63 537.87
								 27.55 539.52 28.35 541.23 L33.55 541.23 C32 539.41 30.26 537.92 28.41 536.86 ZM23.11 541.23 L27.1
								 541.23 C26.28 539.47 25.36 537.77 24.33 536.16 C23.93 536.12 23.52 536.1 23.11 536.09 L23.11 541.23
								 ZM23.11 542.41 L23.11 549.63 L29.97 549.63 C29.4 547.12 28.61 544.71 27.63 542.41 L23.11 542.41
								 ZM23.11 558.02 L30.99 558.02 C30.94 555.55 30.68 553.14 30.22 550.81 L23.11 550.81 L23.11 558.02
								 ZM27.23 575.98 L23.11 575.98 L23.11 581.12 C23.57 581.11 24.03 581.09 24.49 581.05 C25.5 579.44
								 26.42 577.75 27.23 575.98 ZM23.11 566.41 L30.28 566.41 C30.73 564.07 30.97 561.66 31 559.2 L23.11
								 559.2 L23.11 566.41 ZM23.11 574.8 L27.75 574.8 C28.71 572.51 29.49 570.09 30.04 567.59 L23.11 567.59
								 L23.11 574.8 ZM21.93 536.09 C21.37 536.11 20.81 536.14 20.27 536.19 C19.25 537.8 18.33 539.48 17.52
								 541.23 L21.93 541.23 L21.93 536.09 ZM21.93 575.98 L17.39 575.98 C18.19 577.74 19.1 579.42 20.11
								 581.01 C20.71 581.07 21.31 581.11 21.93 581.12 L21.93 575.98 ZM21.93 542.41 L17 542.41 C16.02 544.71
								 15.22 547.12 14.65 549.63 L21.93 549.63 L21.93 542.41 ZM21.93 567.59 L14.58 567.59 C15.14 570.09
								 15.91 572.51 16.87 574.8 L21.93 574.8 L21.93 567.59 ZM21.93 550.81 L14.4 550.81 C13.94 553.14 13.68
								 555.55 13.63 558.02 L21.93 558.02 L21.93 550.81 ZM21.93 559.2 L13.63 559.2 C13.65 561.66 13.89 564.07
								 14.34 566.41 L21.93 566.41 L21.93 559.2 ZM18.66 580.77 C17.71 579.24 16.85 577.64 16.1 575.98 L12.15
								 575.98 C14.03 577.96 16.23 579.59 18.66 580.77 ZM11.33 541.23 L16.28 541.23 C17.06 539.54 17.96
								 537.92 18.96 536.36 C18.07 536.5 17.19 536.7 16.33 536.94 C14.53 538 12.84 539.46 11.33 541.23 ZM10.64
								 575.98 L8.17 575.98 C10.13 577.6 12.37 578.9 14.8 579.78 C13.29 578.67 11.89 577.39 10.64 575.98
								 ZM10.05 541.23 C10.95 540.14 11.95 539.12 13.01 538.18 C11.27 538.99 9.64 540.02 8.17 541.23 L10.05
								 541.23 ZM15.58 574.8 C14.62 572.5 13.86 570.08 13.33 567.59 L6.86 567.59 C7.88 570.24 9.32 572.68
								 11.1 574.8 L15.58 574.8 ZM15.75 542.41 L10.39 542.41 C8.83 544.52 7.52 546.97 6.6 549.63 L13.41
								 549.63 C13.97 547.13 14.76 544.72 15.75 542.41 ZM13.09 566.41 C12.65 564.07 12.42 561.66 12.4 559.2
								 L5.14 559.2 C5.23 561.69 5.68 564.12 6.44 566.41 L13.09 566.41 ZM5.12 558.02 L12.41 558.02 C12.45
								 555.56 12.71 553.15 13.16 550.81 L6.22 550.81 C5.54 553.1 5.15 555.54 5.12 558.02 ZM5.58 567.59
								 L1.85 567.59 C3.04 570.32 4.75 572.76 6.86 574.8 L9.65 574.8 C7.94 572.64 6.56 570.22 5.58 567.59
								 ZM5.34 549.63 C6.23 547.02 7.51 544.59 9.12 542.41 L6.86 542.41 C4.75 544.45 3.04 546.9 1.85 549.63
								 L5.34 549.63 ZM5.17 566.41 C4.44 564.13 4.01 561.71 3.92 559.2 L0 559.2 C0.07 561.73 0.54 564.16
								 1.37 566.41 L5.17 566.41 ZM3.91 558.02 C3.93 555.52 4.29 553.1 4.96 550.81 L1.37 550.81 C0.54 553.06
								 0.06 555.49 0 558.02 L3.91 558.02 ZM57.88 595.28 L67.08 595.28 L67.08 594.54 L57.88 594.54 L57.88
								 595.28 ZM57.88 593.04 L67.08 593.04 L67.08 592.3 L57.88 592.3 L57.88 593.04 ZM57.88 590.8 L67.08
								 590.8 L67.08 590.06 L57.88 590.06 L57.88 590.8 ZM66.89 586.37 A1.14001 1.14001 -180 1 0 64.61 586.37
								 A1.14001 1.14001 -180 1 0 66.89 586.37 Z" class="st6"/>
				</g>
				<path d="M39.92 550.81 C40.58 553.1 40.95 555.52 40.97 558.02 L45.03 558.02 C44.97 555.49 44.49 553.06 43.66 550.81
							 L39.92 550.81 ZM40.96 559.2 C40.87 561.71 40.44 564.13 39.7 566.41 L43.66 566.41 C44.49 564.15 44.97
							 561.73 45.03 559.2 L40.96 559.2 ZM39.54 549.63 L43.18 549.63 C41.99 546.9 40.28 544.45 38.17 542.41
							 L35.76 542.41 C37.36 544.59 38.65 547.02 39.54 549.63 ZM39.3 567.59 C38.32 570.22 36.94 572.64 35.23
							 574.8 L38.17 574.8 C40.28 572.76 41.99 570.32 43.18 567.59 L39.3 567.59 ZM34.83 541.23 L36.86 541.23
							 C35.3 539.94 33.56 538.86 31.69 538.03 C32.82 539.01 33.87 540.08 34.83 541.23 ZM39.74 559.2 L32.22
							 559.2 C32.2 561.66 31.97 564.07 31.53 566.41 L38.44 566.41 C39.2 564.12 39.65 561.69 39.74 559.2 ZM38.66
							 550.81 L31.46 550.81 C31.92 553.15 32.17 555.56 32.22 558.02 L39.75 558.02 C39.73 555.54 39.34 553.1
							 38.66 550.81 ZM34.24 575.98 C32.95 577.43 31.51 578.74 29.94 579.88 C32.48 578.99 34.82 577.67 36.86
							 575.98 L34.24 575.98 ZM38.02 567.59 L31.3 567.59 C30.76 570.08 30 572.5 29.04 574.8 L33.78 574.8 C35.56
							 572.68 36.99 570.24 38.02 567.59 ZM28.88 542.41 C29.87 544.72 30.65 547.13 31.21 549.63 L38.28 549.63
							 C37.36 546.97 36.05 544.52 34.48 542.41 L28.88 542.41 ZM32.73 575.98 L28.52 575.98 C27.75 577.68 26.87
							 579.32 25.89 580.89 C25.94 580.88 25.98 580.87 26.03 580.87 C28.54 579.68 30.8 578.01 32.73 575.98 ZM28.41
							 536.86 C27.5 536.62 26.57 536.43 25.62 536.29 C26.63 537.87 27.55 539.52 28.35 541.23 L33.55 541.23
							 C32 539.41 30.26 537.92 28.41 536.86 ZM23.11 541.23 L27.1 541.23 C26.28 539.47 25.36 537.77 24.33 536.16
							 C23.93 536.12 23.52 536.1 23.11 536.09 L23.11 541.23 ZM23.11 542.41 L23.11 549.63 L29.97 549.63 C29.4
							 547.12 28.61 544.71 27.63 542.41 L23.11 542.41 ZM23.11 558.02 L30.99 558.02 C30.94 555.55 30.68 553.14
							 30.22 550.81 L23.11 550.81 L23.11 558.02 ZM27.23 575.98 L23.11 575.98 L23.11 581.12 C23.57 581.11 24.03
							 581.09 24.49 581.05 C25.5 579.44 26.42 577.75 27.23 575.98 ZM23.11 566.41 L30.28 566.41 C30.73 564.07
							 30.97 561.66 31 559.2 L23.11 559.2 L23.11 566.41 ZM23.11 574.8 L27.75 574.8 C28.71 572.51 29.49 570.09
							 30.04 567.59 L23.11 567.59 L23.11 574.8 ZM21.93 536.09 C21.37 536.11 20.81 536.14 20.27 536.19 C19.25
							 537.8 18.33 539.48 17.52 541.23 L21.93 541.23 L21.93 536.09 ZM21.93 575.98 L17.39 575.98 C18.19 577.74
							 19.1 579.42 20.11 581.01 C20.71 581.07 21.31 581.11 21.93 581.12 L21.93 575.98 ZM21.93 542.41 L17 542.41
							 C16.02 544.71 15.22 547.12 14.65 549.63 L21.93 549.63 L21.93 542.41 ZM21.93 567.59 L14.58 567.59 C15.14
							 570.09 15.91 572.51 16.87 574.8 L21.93 574.8 L21.93 567.59 ZM21.93 550.81 L14.4 550.81 C13.94 553.14
							 13.68 555.55 13.63 558.02 L21.93 558.02 L21.93 550.81 ZM21.93 559.2 L13.63 559.2 C13.65 561.66 13.89
							 564.07 14.34 566.41 L21.93 566.41 L21.93 559.2 ZM18.66 580.77 C17.71 579.24 16.85 577.64 16.1 575.98
							 L12.15 575.98 C14.03 577.96 16.23 579.59 18.66 580.77 ZM11.33 541.23 L16.28 541.23 C17.06 539.54 17.96
							 537.92 18.96 536.36 C18.07 536.5 17.19 536.7 16.33 536.94 C14.53 538 12.84 539.46 11.33 541.23 ZM10.64
							 575.98 L8.17 575.98 C10.13 577.6 12.37 578.9 14.8 579.78 C13.29 578.67 11.89 577.39 10.64 575.98 ZM10.05
							 541.23 C10.95 540.14 11.95 539.12 13.01 538.18 C11.27 538.99 9.64 540.02 8.17 541.23 L10.05 541.23 ZM15.58
							 574.8 C14.62 572.5 13.86 570.08 13.33 567.59 L6.86 567.59 C7.88 570.24 9.32 572.68 11.1 574.8 L15.58
							 574.8 ZM15.75 542.41 L10.39 542.41 C8.83 544.52 7.52 546.97 6.6 549.63 L13.41 549.63 C13.97 547.13 14.76
							 544.72 15.75 542.41 ZM13.09 566.41 C12.65 564.07 12.42 561.66 12.4 559.2 L5.14 559.2 C5.23 561.69 5.68
							 564.12 6.44 566.41 L13.09 566.41 ZM5.12 558.02 L12.41 558.02 C12.45 555.56 12.71 553.15 13.16 550.81
							 L6.22 550.81 C5.54 553.1 5.15 555.54 5.12 558.02 ZM5.58 567.59 L1.85 567.59 C3.04 570.32 4.75 572.76
							 6.86 574.8 L9.65 574.8 C7.94 572.64 6.56 570.22 5.58 567.59 ZM5.34 549.63 C6.23 547.02 7.51 544.59 9.12
							 542.41 L6.86 542.41 C4.75 544.45 3.04 546.9 1.85 549.63 L5.34 549.63 ZM5.17 566.41 C4.44 564.13 4.01
							 561.71 3.92 559.2 L0 559.2 C0.07 561.73 0.54 564.16 1.37 566.41 L5.17 566.41 ZM3.91 558.02 C3.93 555.52
							 4.29 553.1 4.96 550.81 L1.37 550.81 C0.54 553.06 0.06 555.49 0 558.02 L3.91 558.02 ZM57.88 595.28 L67.08
							 595.28 L67.08 594.54 L57.88 594.54 L57.88 595.28 ZM57.88 593.04 L67.08 593.04 L67.08 592.3 L57.88 592.3
							 L57.88 593.04 ZM57.88 590.8 L67.08 590.8 L67.08 590.06 L57.88 590.06 L57.88 590.8 ZM66.89 586.37 A1.14001
							 1.14001 -180 1 0 64.61 586.37 A1.14001 1.14001 -180 1 0 66.89 586.37 Z" class="st9"/>
			</g>
		</g>
		<g id="shape8-35" v:mID="8" v:groupContext="shape" transform="translate(552.756,-136.063)">
			<title>Ark.8</title>
			<g id="shadow8-36" v:groupContext="shadow" v:shadowOffsetX="0.345598" v:shadowOffsetY="-1.97279" v:shadowType="1"
					transform="matrix(1,0,0,1,0.345598,1.97279)" class="st1">
				<rect x="0" y="493.483" width="195.846" height="101.792" rx="11.3386" ry="11.3386" class="st2"/>
			</g>
			<rect x="0" y="493.483" width="195.846" height="101.792" rx="11.3386" ry="11.3386" class="st3"/>
		</g>
		<g id="group9-40" transform="translate(559.843,-158.74)" v:mID="9" v:groupContext="group">
			<v:custProps>
				<v:cp v:nameU="AssetNumber" v:lbl="Gjenstandsnummer" v:prompt="" v:type="0" v:format="" v:sortKey="Asset"
						v:invis="false" v:ask="false" v:langID="1044" v:cal="0"/>
				<v:cp v:nameU="SerialNumber" v:lbl="Serienummer" v:prompt="" v:type="0" v:format="" v:sortKey="Asset"
						v:invis="false" v:ask="false" v:langID="1044" v:cal="0"/>
				<v:cp v:nameU="Location" v:lbl="Plassering" v:prompt="" v:type="0" v:format="" v:sortKey="Asset" v:invis="false"
						v:ask="false" v:langID="1044" v:cal="0"/>
				<v:cp v:nameU="Building" v:lbl="Bygning" v:prompt="" v:type="0" v:format="" v:sortKey="Asset" v:invis="false"
						v:ask="false" v:langID="1044" v:cal="0"/>
				<v:cp v:nameU="Room" v:lbl="Rom" v:prompt="" v:type="0" v:format="" v:sortKey="Asset" v:invis="false" v:ask="false"
						v:langID="1044" v:cal="0"/>
				<v:cp v:nameU="Manufacturer" v:lbl="Produsent" v:prompt="" v:type="0" v:format="" v:sortKey="Equipment"
						v:invis="false" v:ask="false" v:langID="1044" v:cal="0"/>
				<v:cp v:nameU="ProductNumber" v:lbl="Produktnummer" v:prompt="" v:type="0" v:format="" v:sortKey="Equipment"
						v:invis="false" v:ask="false" v:langID="1044" v:cal="0"/>
				<v:cp v:nameU="PartNumber" v:lbl="Delenummer" v:prompt="" v:type="0" v:format="" v:sortKey="Equipment"
						v:invis="false" v:ask="false" v:langID="1044" v:cal="0"/>
				<v:cp v:nameU="ProductDescription" v:lbl="Produktbeskrivelse" v:prompt="" v:type="0" v:format=""
						v:sortKey="Equipment" v:invis="false" v:ask="false" v:langID="1044" v:cal="0"/>
				<v:cp v:nameU="NetworkName" v:lbl="Nettverksnavn" v:prompt="" v:type="0" v:format="" v:sortKey="Network"
						v:invis="false" v:ask="false" v:langID="1044" v:cal="0"/>
				<v:cp v:nameU="IPAddress" v:lbl="IP-adresse" v:prompt="" v:type="0" v:format="" v:sortKey="Network" v:invis="false"
						v:ask="false" v:langID="1044" v:cal="0"/>
				<v:cp v:nameU="SubnetMask" v:lbl="Nettverksmaske" v:prompt="" v:type="0" v:format="" v:sortKey="Network"
						v:invis="false" v:ask="false" v:langID="1044" v:cal="0"/>
				<v:cp v:nameU="AdminInterface" v:lbl="Administrativt grensesnitt" v:prompt="" v:type="0" v:format=""
						v:sortKey="Network" v:invis="false" v:ask="false" v:langID="1044" v:cal="0"/>
				<v:cp v:nameU="NumberofPorts" v:lbl="Antall porter" v:prompt="" v:type="0" v:format="" v:sortKey="Network"
						v:invis="false" v:ask="false" v:langID="1044" v:cal="0"/>
				<v:cp v:nameU="CommunityString" v:lbl="Gruppestreng" v:prompt="" v:type="0" v:format="" v:sortKey="Network"
						v:invis="false" v:ask="false" v:langID="1044" v:cal="0"/>
				<v:cp v:nameU="NetworkDescription" v:lbl="Nettverksbeskrivelse" v:prompt="" v:type="0" v:format=""
						v:sortKey="Network" v:invis="false" v:ask="false" v:langID="1044" v:cal="0"/>
				<v:cp v:nameU="MACAddress" v:lbl="MAC-adresse" v:prompt="" v:type="0" v:format="" v:sortKey="Network"
						v:invis="false" v:ask="false" v:langID="1044" v:cal="0"/>
				<v:cp v:nameU="CPU" v:lbl="CPU" v:prompt="" v:type="0" v:format="" v:sortKey="Workstation" v:invis="false"
						v:ask="false" v:langID="1044" v:cal="0"/>
				<v:cp v:nameU="Memory" v:lbl="Minne" v:prompt="" v:type="0" v:format="" v:sortKey="Workstation" v:invis="false"
						v:ask="false" v:langID="1044" v:cal="0"/>
				<v:cp v:nameU="OperatingSystem" v:lbl="Operativsystem" v:prompt="" v:type="0" v:format="" v:sortKey="Workstation"
						v:invis="false" v:ask="false" v:langID="1044" v:cal="0"/>
				<v:cp v:nameU="HardDriveSize" v:lbl="Harddiskkapasitet" v:prompt="" v:type="0" v:format="" v:sortKey="Workstation"
						v:invis="false" v:ask="false" v:langID="1044" v:cal="0"/>
				<v:cp v:nameU="Department" v:lbl="Avdeling" v:prompt="" v:type="0" v:format="" v:sortKey="" v:invis="false"
						v:ask="false" v:langID="1044" v:cal="0"/>
				<v:cp v:nameU="ShapeClass" v:lbl="ShapeClass" v:prompt="" v:type="0" v:format="" v:sortKey="" v:invis="true"
						v:ask="false" v:langID="1044" v:cal="0" v:val="VT4(Utstyr)"/>
				<v:cp v:nameU="ShapeType" v:lbl="ShapeType" v:prompt="" v:type="0" v:format="" v:sortKey="" v:invis="true"
						v:ask="false" v:langID="1044" v:cal="0" v:val="VT4(Server)"/>
				<v:cp v:nameU="SubShapeType" v:lbl="SubShapeType" v:prompt="" v:type="0" v:format="" v:sortKey="" v:invis="true"
						v:ask="false" v:langID="1044" v:cal="0" v:val="VT4(Database)"/>
			</v:custProps>
			<v:userDefs>
				<v:ud v:nameU="visVersion" v:prompt="" v:val="VT0(15):26"/>
				<v:ud v:nameU="ShapeClass" v:prompt="" v:val="VT0(5):26"/>
				<v:ud v:nameU="SolSH" v:prompt="" v:val="VT15({BF0433D9-CD73-4EB5-8390-8653BE590246}):41"/>
				<v:ud v:nameU="visLegendShape" v:prompt="" v:val="VT0(2):26"/>
			</v:userDefs>
			<title>Databaseserver</title>
			<g id="shape10-41" v:mID="10" v:groupContext="shape" transform="translate(20.6107,-15.502)">
				<title>Ark.10</title>
				<g id="shadow10-42" v:groupContext="shadow" v:shadowOffsetX="0.345598" v:shadowOffsetY="-1.97279" v:shadowType="1"
						transform="matrix(1,0,0,1,0.345598,1.97279)" class="st1">
					<path d="M0 595.28 L28.27 595.28" class="st4"/>
				</g>
				<path d="M0 595.28 L28.27 595.28" class="st5"/>
			</g>
			<g id="shape11-49" v:mID="11" v:groupContext="shape" transform="translate(48.8837,-4.54747E-013)">
				<title>Ark.11</title>
				<g id="shadow11-50" v:groupContext="shadow" v:shadowOffsetX="0.345598" v:shadowOffsetY="-1.97279" v:shadowType="1"
						transform="matrix(1,0,0,1,0.345598,1.97279)" class="st1">
					<rect x="0" y="561.872" width="21.3245" height="33.4037" class="st6"/>
				</g>
				<rect x="0" y="561.872" width="21.3245" height="33.4037" class="st7"/>
			</g>
			<g id="shape12-54" v:mID="12" v:groupContext="shape" transform="translate(0.657982,-5.47553)">
				<title>Ark.12</title>
				<g id="shadow12-55" v:groupContext="shadow" v:shadowOffsetX="0.345598" v:shadowOffsetY="-1.97279" v:shadowType="1"
						transform="matrix(1,0,0,1,0.345598,1.97279)" class="st1">
					<path d="M0 534.51 L0 573.4 L0.01 573.4 C0.19 575.89 9.42 577.9 20.78 577.9 C32.14 577.9 41.37 575.89 41.55 573.4
								 L41.56 573.4 L41.56 534.51 C41.5 535.68 39.44 536.75 36.1 537.55 C36.09 537.55 36.09 537.55 36.09
								 537.55 C35.87 537.6 35.64 537.66 35.41 537.71 C35.4 537.71 35.39 537.71 35.39 537.71 C35.16 537.76
								 34.93 537.81 34.69 537.86 C34.67 537.86 34.66 537.86 34.64 537.87 C34.41 537.91 34.18 537.96 33.94
								 538 C33.91 538 33.89 538.01 33.86 538.01 C33.63 538.05 33.4 538.09 33.16 538.13 C33.12 538.14 33.07
								 538.15 33.02 538.15 C32.8 538.19 32.58 538.23 32.35 538.26 C32.3 538.27 32.25 538.27 32.2 538.28
								 C31.97 538.31 31.74 538.35 31.51 538.38 C31.45 538.39 31.4 538.39 31.34 538.4 C31.11 538.43 30.88
								 538.46 30.64 538.49 C30.57 538.5 30.5 538.5 30.43 538.51 C30.21 538.54 29.98 538.56 29.75 538.59
								 C29.67 538.6 29.58 538.6 29.49 538.61 C29.28 538.64 29.06 538.66 28.84 538.68 C28.73 538.69 28.61
								 538.7 28.5 538.71 C28.3 538.72 28.1 538.74 27.9 538.76 C27.78 538.77 27.66 538.78 27.54 538.79 C27.34
								 538.8 27.14 538.82 26.94 538.83 C26.81 538.84 26.68 538.85 26.55 538.85 C26.35 538.87 26.16 538.88
								 25.96 538.89 C25.81 538.9 25.67 538.91 25.53 538.91 C25.34 538.92 25.15 538.93 24.95 538.94 C24.81
								 538.95 24.66 538.95 24.52 538.96 C24.32 538.97 24.13 538.98 23.93 538.98 C23.77 538.99 23.61 538.99
								 23.44 539 C23.26 539 23.08 539.01 22.9 539.01 C22.7 539.02 22.49 539.02 22.29 539.02 C22.14 539.02
								 21.99 539.03 21.85 539.03 C21.49 539.03 21.14 539.03 20.78 539.03 C20.42 539.03 20.07 539.03 19.71
								 539.03 C19.57 539.03 19.42 539.02 19.27 539.02 C19.07 539.02 18.86 539.02 18.66 539.01 C18.48 539.01
								 18.3 539 18.12 539 C17.95 538.99 17.79 538.99 17.63 538.98 C17.43 538.98 17.24 538.97 17.04 538.96
								 C16.9 538.95 16.75 538.95 16.61 538.94 C16.41 538.93 16.22 538.92 16.03 538.91 C15.89 538.91 15.74
								 538.9 15.6 538.89 C15.4 538.88 15.21 538.87 15.01 538.85 C14.88 538.85 14.75 538.84 14.62 538.83
								 C14.42 538.82 14.22 538.8 14.02 538.79 C13.9 538.78 13.78 538.77 13.66 538.76 C13.46 538.74 13.26
								 538.72 13.06 538.71 C12.95 538.7 12.83 538.69 12.72 538.68 C12.5 538.66 12.28 538.64 12.07 538.61
								 C11.98 538.6 11.89 538.6 11.81 538.59 C11.58 538.56 11.35 538.54 11.13 538.51 C11.06 538.5 10.99
								 538.5 10.91 538.49 C10.68 538.46 10.45 538.43 10.22 538.4 C10.16 538.39 10.11 538.39 10.05 538.38
								 C9.82 538.35 9.59 538.31 9.36 538.28 C9.31 538.27 9.26 538.27 9.21 538.26 C8.98 538.23 8.76 538.19
								 8.54 538.15 C8.49 538.15 8.44 538.14 8.4 538.13 C8.16 538.09 7.93 538.05 7.7 538.01 C7.67 538.01
								 7.65 538 7.62 538 C7.38 537.96 7.15 537.91 6.92 537.87 C6.9 537.86 6.89 537.86 6.87 537.86 C6.63
								 537.81 6.4 537.76 6.17 537.71 C6.17 537.71 6.16 537.71 6.15 537.71 C5.92 537.66 5.69 537.6 5.47
								 537.55 C5.47 537.55 5.47 537.55 5.46 537.55 C2.12 536.75 0.06 535.68 0 534.51 ZM5.46 537.55 C5.47
								 537.55 5.47 537.55 5.47 537.55 C5.69 537.6 5.92 537.66 6.15 537.71 C6.16 537.71 6.17 537.71 6.17
								 537.71 C6.4 537.76 6.63 537.81 6.87 537.86 C6.89 537.86 6.9 537.86 6.92 537.87 C7.15 537.91 7.38
								 537.96 7.62 538 C7.65 538 7.67 538.01 7.7 538.01 C7.93 538.05 8.16 538.09 8.4 538.13 C8.44 538.14
								 8.49 538.15 8.54 538.15 C8.76 538.19 8.98 538.23 9.21 538.26 C9.26 538.27 9.31 538.27 9.36 538.28
								 C9.59 538.31 9.82 538.35 10.05 538.38 C10.11 538.39 10.16 538.39 10.22 538.4 C10.45 538.43 10.68
								 538.46 10.91 538.49 C10.99 538.5 11.06 538.5 11.13 538.51 C11.35 538.54 11.58 538.56 11.81 538.59
								 C11.89 538.6 11.98 538.6 12.07 538.61 C12.28 538.64 12.5 538.66 12.72 538.68 C12.83 538.69 12.95
								 538.7 13.06 538.71 C13.26 538.72 13.46 538.74 13.66 538.76 C13.78 538.77 13.9 538.78 14.02 538.79
								 C14.22 538.8 14.42 538.82 14.62 538.83 C14.75 538.84 14.88 538.85 15.01 538.85 C15.21 538.87 15.4
								 538.88 15.6 538.89 C15.74 538.9 15.89 538.91 16.03 538.91 C16.22 538.92 16.41 538.93 16.61 538.94
								 C16.75 538.95 16.9 538.95 17.04 538.96 C17.24 538.97 17.43 538.98 17.63 538.98 C17.79 538.99 17.95
								 538.99 18.12 539 C18.3 539 18.48 539.01 18.66 539.01 C18.86 539.02 19.07 539.02 19.27 539.02 C19.42
								 539.02 19.57 539.03 19.71 539.03 C20.07 539.03 20.42 539.03 20.78 539.03 C21.14 539.03 21.49 539.03
								 21.85 539.03 C21.99 539.03 22.14 539.02 22.29 539.02 C22.49 539.02 22.7 539.02 22.9 539.01 C23.08
								 539.01 23.26 539 23.44 539 C23.61 538.99 23.77 538.99 23.93 538.98 C24.13 538.98 24.32 538.97 24.52
								 538.96 C24.66 538.95 24.81 538.95 24.95 538.94 C25.15 538.93 25.34 538.92 25.53 538.91 C25.67 538.91
								 25.81 538.9 25.96 538.89 C26.16 538.88 26.35 538.87 26.55 538.85 C26.68 538.85 26.81 538.84 26.94
								 538.83 C27.14 538.82 27.34 538.8 27.54 538.79 C27.66 538.78 27.78 538.77 27.9 538.76 C28.1 538.74
								 28.3 538.72 28.5 538.71 C28.61 538.7 28.73 538.69 28.84 538.68 C29.06 538.66 29.28 538.64 29.49
								 538.61 C29.58 538.6 29.67 538.6 29.75 538.59 C29.98 538.56 30.21 538.54 30.43 538.51 C30.5 538.5
								 30.57 538.5 30.64 538.49 C30.88 538.46 31.11 538.43 31.34 538.4 C31.4 538.39 31.45 538.39 31.51
								 538.38 C31.74 538.35 31.97 538.31 32.2 538.28 C32.25 538.27 32.3 538.27 32.35 538.26 C32.58 538.23
								 32.8 538.19 33.02 538.15 C33.07 538.15 33.12 538.14 33.16 538.13 C33.4 538.09 33.63 538.05 33.86
								 538.01 C33.89 538.01 33.91 538 33.94 538 C34.18 537.96 34.41 537.91 34.64 537.87 C34.66 537.86 34.67
								 537.86 34.69 537.86 C34.93 537.81 35.16 537.76 35.39 537.71 C35.39 537.71 35.4 537.71 35.41 537.71
								 C35.64 537.66 35.87 537.6 36.09 537.55 C36.09 537.55 36.09 537.55 36.1 537.55 C39.49 536.74 41.56
								 535.65 41.56 534.46 C41.56 531.93 32.25 529.88 20.78 529.88 C9.3 529.88 0 531.93 0 534.46 C0 535.65
								 2.07 536.74 5.46 537.55 ZM56.44 595.28 L66.84 595.28 L66.84 594.44 L56.44 594.44 L56.44 595.28 ZM56.44
								 592.74 L66.84 592.74 L66.84 591.91 L56.44 591.91 L56.44 592.74 ZM56.44 590.21 L66.84 590.21 L66.84
								 589.37 L56.44 589.37 L56.44 590.21 ZM66.63 585.2 A1.28924 1.28924 -180 1 0 64.05 585.2 A1.28924
								 1.28924 -180 1 0 66.63 585.2 Z" class="st6"/>
				</g>
				<path d="M0 534.51 L0 573.4 L0.01 573.4 C0.19 575.89 9.42 577.9 20.78 577.9 C32.14 577.9 41.37 575.89 41.55 573.4
							 L41.56 573.4 L41.56 534.51 C41.5 535.68 39.44 536.75 36.1 537.55 C36.09 537.55 36.09 537.55 36.09 537.55
							 C35.87 537.6 35.64 537.66 35.41 537.71 C35.4 537.71 35.39 537.71 35.39 537.71 C35.16 537.76 34.93 537.81
							 34.69 537.86 C34.67 537.86 34.66 537.86 34.64 537.87 C34.41 537.91 34.18 537.96 33.94 538 C33.91 538
							 33.89 538.01 33.86 538.01 C33.63 538.05 33.4 538.09 33.16 538.13 C33.12 538.14 33.07 538.15 33.02 538.15
							 C32.8 538.19 32.58 538.23 32.35 538.26 C32.3 538.27 32.25 538.27 32.2 538.28 C31.97 538.31 31.74 538.35
							 31.51 538.38 C31.45 538.39 31.4 538.39 31.34 538.4 C31.11 538.43 30.88 538.46 30.64 538.49 C30.57 538.5
							 30.5 538.5 30.43 538.51 C30.21 538.54 29.98 538.56 29.75 538.59 C29.67 538.6 29.58 538.6 29.49 538.61
							 C29.28 538.64 29.06 538.66 28.84 538.68 C28.73 538.69 28.61 538.7 28.5 538.71 C28.3 538.72 28.1 538.74
							 27.9 538.76 C27.78 538.77 27.66 538.78 27.54 538.79 C27.34 538.8 27.14 538.82 26.94 538.83 C26.81 538.84
							 26.68 538.85 26.55 538.85 C26.35 538.87 26.16 538.88 25.96 538.89 C25.81 538.9 25.67 538.91 25.53 538.91
							 C25.34 538.92 25.15 538.93 24.95 538.94 C24.81 538.95 24.66 538.95 24.52 538.96 C24.32 538.97 24.13
							 538.98 23.93 538.98 C23.77 538.99 23.61 538.99 23.44 539 C23.26 539 23.08 539.01 22.9 539.01 C22.7 539.02
							 22.49 539.02 22.29 539.02 C22.14 539.02 21.99 539.03 21.85 539.03 C21.49 539.03 21.14 539.03 20.78 539.03
							 C20.42 539.03 20.07 539.03 19.71 539.03 C19.57 539.03 19.42 539.02 19.27 539.02 C19.07 539.02 18.86
							 539.02 18.66 539.01 C18.48 539.01 18.3 539 18.12 539 C17.95 538.99 17.79 538.99 17.63 538.98 C17.43
							 538.98 17.24 538.97 17.04 538.96 C16.9 538.95 16.75 538.95 16.61 538.94 C16.41 538.93 16.22 538.92 16.03
							 538.91 C15.89 538.91 15.74 538.9 15.6 538.89 C15.4 538.88 15.21 538.87 15.01 538.85 C14.88 538.85 14.75
							 538.84 14.62 538.83 C14.42 538.82 14.22 538.8 14.02 538.79 C13.9 538.78 13.78 538.77 13.66 538.76 C13.46
							 538.74 13.26 538.72 13.06 538.71 C12.95 538.7 12.83 538.69 12.72 538.68 C12.5 538.66 12.28 538.64 12.07
							 538.61 C11.98 538.6 11.89 538.6 11.81 538.59 C11.58 538.56 11.35 538.54 11.13 538.51 C11.06 538.5 10.99
							 538.5 10.91 538.49 C10.68 538.46 10.45 538.43 10.22 538.4 C10.16 538.39 10.11 538.39 10.05 538.38 C9.82
							 538.35 9.59 538.31 9.36 538.28 C9.31 538.27 9.26 538.27 9.21 538.26 C8.98 538.23 8.76 538.19 8.54 538.15
							 C8.49 538.15 8.44 538.14 8.4 538.13 C8.16 538.09 7.93 538.05 7.7 538.01 C7.67 538.01 7.65 538 7.62 538
							 C7.38 537.96 7.15 537.91 6.92 537.87 C6.9 537.86 6.89 537.86 6.87 537.86 C6.63 537.81 6.4 537.76 6.17
							 537.71 C6.17 537.71 6.16 537.71 6.15 537.71 C5.92 537.66 5.69 537.6 5.47 537.55 C5.47 537.55 5.47 537.55
							 5.46 537.55 C2.12 536.75 0.06 535.68 0 534.51 ZM5.46 537.55 C5.47 537.55 5.47 537.55 5.47 537.55 C5.69
							 537.6 5.92 537.66 6.15 537.71 C6.16 537.71 6.17 537.71 6.17 537.71 C6.4 537.76 6.63 537.81 6.87 537.86
							 C6.89 537.86 6.9 537.86 6.92 537.87 C7.15 537.91 7.38 537.96 7.62 538 C7.65 538 7.67 538.01 7.7 538.01
							 C7.93 538.05 8.16 538.09 8.4 538.13 C8.44 538.14 8.49 538.15 8.54 538.15 C8.76 538.19 8.98 538.23 9.21
							 538.26 C9.26 538.27 9.31 538.27 9.36 538.28 C9.59 538.31 9.82 538.35 10.05 538.38 C10.11 538.39 10.16
							 538.39 10.22 538.4 C10.45 538.43 10.68 538.46 10.91 538.49 C10.99 538.5 11.06 538.5 11.13 538.51 C11.35
							 538.54 11.58 538.56 11.81 538.59 C11.89 538.6 11.98 538.6 12.07 538.61 C12.28 538.64 12.5 538.66 12.72
							 538.68 C12.83 538.69 12.95 538.7 13.06 538.71 C13.26 538.72 13.46 538.74 13.66 538.76 C13.78 538.77
							 13.9 538.78 14.02 538.79 C14.22 538.8 14.42 538.82 14.62 538.83 C14.75 538.84 14.88 538.85 15.01 538.85
							 C15.21 538.87 15.4 538.88 15.6 538.89 C15.74 538.9 15.89 538.91 16.03 538.91 C16.22 538.92 16.41 538.93
							 16.61 538.94 C16.75 538.95 16.9 538.95 17.04 538.96 C17.24 538.97 17.43 538.98 17.63 538.98 C17.79 538.99
							 17.95 538.99 18.12 539 C18.3 539 18.48 539.01 18.66 539.01 C18.86 539.02 19.07 539.02 19.27 539.02 C19.42
							 539.02 19.57 539.03 19.71 539.03 C20.07 539.03 20.42 539.03 20.78 539.03 C21.14 539.03 21.49 539.03
							 21.85 539.03 C21.99 539.03 22.14 539.02 22.29 539.02 C22.49 539.02 22.7 539.02 22.9 539.01 C23.08 539.01
							 23.26 539 23.44 539 C23.61 538.99 23.77 538.99 23.93 538.98 C24.13 538.98 24.32 538.97 24.52 538.96
							 C24.66 538.95 24.81 538.95 24.95 538.94 C25.15 538.93 25.34 538.92 25.53 538.91 C25.67 538.91 25.81
							 538.9 25.96 538.89 C26.16 538.88 26.35 538.87 26.55 538.85 C26.68 538.85 26.81 538.84 26.94 538.83 C27.14
							 538.82 27.34 538.8 27.54 538.79 C27.66 538.78 27.78 538.77 27.9 538.76 C28.1 538.74 28.3 538.72 28.5
							 538.71 C28.61 538.7 28.73 538.69 28.84 538.68 C29.06 538.66 29.28 538.64 29.49 538.61 C29.58 538.6 29.67
							 538.6 29.75 538.59 C29.98 538.56 30.21 538.54 30.43 538.51 C30.5 538.5 30.57 538.5 30.64 538.49 C30.88
							 538.46 31.11 538.43 31.34 538.4 C31.4 538.39 31.45 538.39 31.51 538.38 C31.74 538.35 31.97 538.31 32.2
							 538.28 C32.25 538.27 32.3 538.27 32.35 538.26 C32.58 538.23 32.8 538.19 33.02 538.15 C33.07 538.15 33.12
							 538.14 33.16 538.13 C33.4 538.09 33.63 538.05 33.86 538.01 C33.89 538.01 33.91 538 33.94 538 C34.18
							 537.96 34.41 537.91 34.64 537.87 C34.66 537.86 34.67 537.86 34.69 537.86 C34.93 537.81 35.16 537.76
							 35.39 537.71 C35.39 537.71 35.4 537.71 35.41 537.71 C35.64 537.66 35.87 537.6 36.09 537.55 C36.09 537.55
							 36.09 537.55 36.1 537.55 C39.49 536.74 41.56 535.65 41.56 534.46 C41.56 531.93 32.25 529.88 20.78 529.88
							 C9.3 529.88 0 531.93 0 534.46 C0 535.65 2.07 536.74 5.46 537.55 ZM56.44 595.28 L66.84 595.28 L66.84
							 594.44 L56.44 594.44 L56.44 595.28 ZM56.44 592.74 L66.84 592.74 L66.84 591.91 L56.44 591.91 L56.44 592.74
							 ZM56.44 590.21 L66.84 590.21 L66.84 589.37 L56.44 589.37 L56.44 590.21 ZM66.63 585.2 A1.28924 1.28924
							 -180 1 0 64.05 585.2 A1.28924 1.28924 -180 1 0 66.63 585.2 Z" class="st9"/>
			</g>
		</g>
		<g id="shape14-59" v:mID="14" v:groupContext="shape" transform="translate(701.228,-391.024)">
			<title>Ark.14</title>
			<desc>tjener</desc>
			<v:textBlock v:margins="rect(4,4,4,4)" v:tabSpace="42.5197"/>
			<v:textRect cx="39.1496" cy="585.276" width="78.3" height="20"/>
			<rect x="0" y="575.276" width="78.2992" height="20" class="st10"/>
			<text x="9.14" y="592.48" class="st11" v:langID="1044"><v:paragraph v:horizAlign="1"/><v:tabList/>tjener</text>		</g>
		<g id="shape15-62" v:mID="15" v:groupContext="shape" transform="translate(632.661,-212.598)">
			<title>Ark.15</title>
			<desc>databasetjener</desc>
			<v:textBlock v:margins="rect(4,4,4,4)" v:tabSpace="42.5197"/>
			<v:textRect cx="59.2598" cy="585.276" width="118.52" height="20"/>
			<rect x="0" y="575.276" width="118.52" height="20" class="st10"/>
			<text x="8.83" y="590.08" class="st12" v:langID="1044"><v:paragraph v:horizAlign="1"/><v:tabList/>databasetjener</text>		</g>
		<g id="shape16-65" v:mID="16" v:groupContext="shape" transform="translate(431.937,-372.598)">
			<title>Ark.16</title>
			<desc>webtjener</desc>
			<v:textBlock v:margins="rect(4,4,4,4)" v:tabSpace="42.5197"/>
			<v:textRect cx="39.1496" cy="585.276" width="78.3" height="20"/>
			<rect x="0" y="575.276" width="78.2992" height="20" class="st10"/>
			<text x="4.86" y="590.08" class="st12" v:langID="1044"><v:paragraph v:horizAlign="1"/><v:tabList/>webtjener</text>		</g>
		<g id="shape17-68" v:mID="17" v:groupContext="shape" transform="translate(56.6929,-204.222)">
			<title>Ark.17</title>
			<g id="shadow17-69" v:groupContext="shadow" v:shadowOffsetX="0.345598" v:shadowOffsetY="-1.97279" v:shadowType="1"
					transform="matrix(1,0,0,1,0.345598,1.97279)" class="st1">
				<rect x="0" y="493.483" width="177.57" height="101.792" rx="11.3386" ry="11.3386" class="st2"/>
			</g>
			<rect x="0" y="493.483" width="177.57" height="101.792" rx="11.3386" ry="11.3386" class="st3"/>
		</g>
		<g id="shape18-73" v:mID="18" v:groupContext="shape" transform="translate(56.6929,-280.481)">
			<title>Ark.18</title>
			<desc>klient</desc>
			<v:textBlock v:margins="rect(4,4,4,4)" v:tabSpace="42.5197"/>
			<v:textRect cx="35.4331" cy="585.276" width="70.87" height="20"/>
			<rect x="0" y="575.276" width="70.8661" height="20" class="st10"/>
			<text x="7.14" y="592.48" class="st11" v:langID="1044"><v:paragraph v:horizAlign="1"/><v:tabList/>klient</text>		</g>
		<g id="shape19-76" v:mID="19" v:groupContext="shape" transform="translate(155.906,-238.557)">
			<title>Internett</title>
			<v:userDefs>
				<v:ud v:nameU="msvShapeCategories" v:prompt="" v:val="VT4(Icon)"/>
				<v:ud v:nameU="visVersion" v:prompt="" v:val="VT0(15):26"/>
			</v:userDefs>
			<path d="M28.35 539.48 A28.3477 27.9013 -180 0 0 -0 567.38 A28.3466 27.9002 -180 0 0 28.35 595.28 A28.3454 27.8991 -180
						 0 0 56.69 567.38 A28.3466 27.9002 -180 0 0 28.35 539.48 ZM29.23 591.74 L29.23 590.84 L29.23 580.45 L38.81
						 580.45 L38.2 581.71 A32.0359 31.5314 0 0 1 32.02 590.31 L31.07 591.16 L30.48 591.68 L29.23 591.74 ZM30.16
						 543.05 L30.7 543.53 A32.0918 31.5864 0 0 1 37.99 553.04 L38.63 554.3 L29.23 554.3 L29.23 543.01 L30.16 543.05
						 ZM49.26 554.3 L40.57 554.3 L40.33 553.77 A33.9936 33.4583 -180 0 0 34.19 544.45 L33.25 543.45 A24.8543 24.4629
						 0 0 1 49.26 554.3 ZM29.23 566.52 L29.23 556.04 L39.34 556.04 L39.55 556.62 A33.3348 32.8098 0 0 1 41.39
						 565.59 L41.44 566.52 L29.23 566.52 L29.23 566.52 ZM41.46 568.26 L41.42 569.17 A33.1351 32.6133 0 0 1 39.68
						 578.12 L39.47 578.71 L29.23 578.71 L29.23 568.26 L41.46 568.26 ZM34.47 590.27 A33.8063 33.2739 -180 0 0
						 40.45 580.98 L40.68 580.45 L49.26 580.45 A24.8534 24.462 0 0 1 33.58 591.23 L34.47 590.27 ZM41.37 578.71
						 L41.72 577.58 A34.9851 34.4342 -180 0 0 43.2 569.09 L43.24 568.26 L53.1 568.26 A24.6403 24.2523 0 0 1 50.29
						 578.71 L41.37 578.71 ZM43.23 566.52 L43.19 565.69 A35.175 34.6211 -180 0 0 41.63 557.17 L41.27 556.04 L50.3
						 556.04 A24.6015 24.2141 0 0 1 53.11 566.52 L43.23 566.52 ZM27.45 544.27 L27.45 554.3 L18.07 554.3 L18.71
						 553.04 A32.1813 31.6745 0 0 1 24.76 544.71 L24.78 544.69 L24.76 544.7 L25.6 543.94 L26.63 543.05 L27.45
						 543.01 L27.45 544.27 ZM23.55 543.43 L22.62 544.42 A33.8981 33.3643 -180 0 0 16.45 553.77 L16.21 554.3 L7.44
						 554.3 A24.8439 24.4526 0 0 1 23.55 543.43 ZM15.51 556.04 L15.15 557.17 A34.9787 34.4278 -180 0 0 13.59 565.69
						 L13.55 566.52 L3.59 566.52 A24.6262 24.2384 0 0 1 6.4 556.04 L15.51 556.04 ZM3.59 568.26 L13.54 568.26 L13.58
						 569.09 A34.7738 34.2261 -180 0 0 15.06 577.58 L15.41 578.71 L6.4 578.71 A24.6388 24.2508 0 0 1 3.59 568.26
						 ZM16.1 580.45 L16.33 580.98 A33.841 33.3081 -180 0 0 22.34 590.3 L23.23 591.26 A24.8587 24.4672 0 0 1 7.44
						 580.46 L16.1 580.46 L16.1 580.45 ZM17.13 578.12 A33.2983 32.7739 0 0 1 15.38 569.18 L15.33 568.26 L27.46
						 568.26 L27.46 578.71 L17.34 578.71 L17.13 578.12 ZM15.32 566.52 L15.37 565.6 A33.0697 32.5489 0 0 1 17.19
						 556.62 L17.4 556.04 L27.45 556.04 L27.45 566.52 L15.32 566.52 ZM26.3 591.69 L25.97 591.39 A32.2412 31.7334
						 0 0 1 18.66 581.71 L18.04 580.45 L27.45 580.45 L27.45 591.74 L26.3 591.69 Z" class="st13"/>
		</g>
		<g id="shape20-78" v:mID="20" v:groupContext="shape" transform="translate(145.102,-212.598)">
			<title>Ark.20</title>
			<desc>nettleser</desc>
			<v:textBlock v:margins="rect(4,4,4,4)" v:tabSpace="42.5197"/>
			<v:textRect cx="39.1496" cy="585.276" width="78.3" height="20"/>
			<rect x="0" y="575.276" width="78.2992" height="20" class="st10"/>
			<text x="9.23" y="590.08" class="st12" v:langID="1044"><v:paragraph v:horizAlign="1"/><v:tabList/>nettleser</text>		</g>
		<g id="shape21-81" v:mID="21" v:groupContext="shape" transform="translate(375.874,-286.448)">
			<title>Ark.21</title>
			<desc>Finn fil</desc>
			<v:textBlock v:margins="rect(4,4,4,4)" v:tabSpace="42.5197"/>
			<v:textRect cx="38.8346" cy="572.977" width="77.67" height="44.5972"/>
			<g id="shadow21-82" v:groupContext="shadow" v:shadowOffsetX="0.345598" v:shadowOffsetY="-1.97279" v:shadowType="1"
					transform="matrix(1,0,0,1,0.345598,1.97279)" class="st1">
				<rect x="0" y="550.678" width="77.6693" height="44.5972" rx="14.1732" ry="14.1732" class="st6"/>
			</g>
			<rect x="0" y="550.678" width="77.6693" height="44.5972" rx="14.1732" ry="14.1732" class="st9"/>
			<text x="16.99" y="577.78" class="st14" v:langID="1044"><v:paragraph v:horizAlign="1"/><v:tabList/>Finn fil</text>		</g>
		<g id="shape22-87" v:mID="22" v:groupContext="shape" transform="translate(566.929,-283.465)">
			<title>Ark.22</title>
			<desc>hallo.html</desc>
			<v:textBlock v:margins="rect(4,4,4,4)" v:tabSpace="42.5197"/>
			<v:textRect cx="38.8346" cy="572.977" width="77.67" height="44.5972"/>
			<g id="shadow22-88" v:groupContext="shadow" v:shadowOffsetX="0.345598" v:shadowOffsetY="-1.97279" v:shadowType="1"
					transform="matrix(1,0,0,1,0.345598,1.97279)" class="st1">
				<rect x="0" y="550.678" width="77.6693" height="44.5972" rx="14.1732" ry="14.1732" class="st6"/>
			</g>
			<rect x="0" y="550.678" width="77.6693" height="44.5972" rx="14.1732" ry="14.1732" class="st15"/>
			<text x="5.78" y="577.78" class="st14" v:langID="1044"><v:paragraph v:horizAlign="1"/><v:tabList/>hallo.html</text>		</g>
		<g id="shape24-93" v:mID="24" v:groupContext="shape" transform="translate(375.874,-158.74)">
			<title>Ark.24</title>
			<desc>HTML</desc>
			<v:textBlock v:margins="rect(4,4,4,4)" v:tabSpace="42.5197"/>
			<v:textRect cx="38.8346" cy="572.977" width="77.67" height="44.5972"/>
			<g id="shadow24-94" v:groupContext="shadow" v:shadowOffsetX="0.345598" v:shadowOffsetY="-1.97279" v:shadowType="1"
					transform="matrix(1,0,0,1,0.345598,1.97279)" class="st1">
				<rect x="0" y="550.678" width="77.6693" height="44.5972" rx="14.1732" ry="14.1732" class="st6"/>
			</g>
			<rect x="0" y="550.678" width="77.6693" height="44.5972" rx="14.1732" ry="14.1732" class="st9"/>
			<text x="19.75" y="577.78" class="st14" v:langID="1044"><v:paragraph v:horizAlign="1"/><v:tabList/>HTML</text>		</g>
		<g id="shape25-99" v:mID="25" v:groupContext="shape" transform="translate(60.9873,-237.845) rotate(-16.9229)">
			<title>Ark.25</title>
			<desc>HTTP request</desc>
			<v:textBlock v:margins="rect(4,4,4,4)" v:tabSpace="42.5197"/>
			<v:textRect cx="74.0106" cy="595.276" width="148.03" height="0"/>
			<path d="M0 595.28 L136.98 595.28" class="st16"/>
			<rect v:rectContext="textBkgnd" x="41.2446" y="588.076" width="65.5321" height="14.4001" class="st18"/>
			<text x="41.24" y="598.88" class="st19" v:langID="1044"><v:paragraph v:horizAlign="1"/><v:tabList/>HTTP request</text>		</g>
		<g id="shape26-107" v:mID="26" v:groupContext="shape" transform="translate(474.174,-193.293) rotate(23.7675)">
			<title>Ark.26</title>
			<desc>HTTP response</desc>
			<v:textBlock v:margins="rect(4,4,4,4)" v:tabSpace="42.5197"/>
			<v:textRect cx="77.3674" cy="595.276" width="154.74" height="0"/>
			<path d="M10.68 595.28 L11.04 595.28 L154.73 595.28" class="st20"/>
			<rect v:rectContext="textBkgnd" x="41.1004" y="588.076" width="72.5339" height="14.4001" class="st18"/>
			<text x="41.1" y="598.88" class="st19" v:langID="1044"><v:paragraph v:horizAlign="1"/><v:tabList/>HTTP response</text>		</g>
		<g id="shape28-115" v:mID="28" v:groupContext="shape" transform="translate(438.51,-306.519) rotate(-1.44716)">
			<title>Ark.28</title>
			<path d="M0 595.28 L102.38 595.28" class="st16"/>
		</g>
		<g id="shape29-120" v:mID="29" v:groupContext="shape" transform="translate(953.41,752.11) rotate(139.594)">
			<title>Ark.29</title>
			<path d="M0 595.28 L142.01 595.28" class="st16"/>
		</g>
	</g>
</svg>
