<?xml version="1.0" encoding="UTF-8"?>
<!DOCTYPE svg  PUBLIC '-//W3C//DTD SVG 1.1//EN'  'http://www.w3.org/Graphics/SVG/1.1/DTD/svg11.dtd'>
<svg clip-rule="evenodd" fill-rule="evenodd" image-rendering="optimizeQuality" shape-rendering="geometricPrecision" text-rendering="geometricPrecision" version="1.1" viewBox="0 0 1920 1493" xml:space="preserve" xmlns="http://www.w3.org/2000/svg">
 <defs>
  <style type="text/css">
   <![CDATA[
    .str0 {stroke:#2B2A29;stroke-width:6.84154}
    .fil13 {fill:none}
    .fil11 {fill:#FEFEFE}
    .fil16 {fill:#EBECEC}
    .fil12 {fill:#C5C6C6}
    .fil18 {fill:#898989}
    .fil14 {fill:#2B2A29}
    .fil19 {fill:#FFED00}
    .fil15 {fill:#F6B096}
    .fil0 {fill:#D19563}
    .fil4 {fill:#A75F4A}
    .fil2 {fill:#CC6F3C}
    .fil8 {fill:#E31E24}
    .fil17 {fill:#E69A7F}
    .fil9 {fill:#CB2A2D}
    .fil10 {fill:#B52C2D}
    .fil3 {fill:#AD5736}
    .fil1 {fill:#AD6E48}
    .fil6 {fill:#B0CB1F}
    .fil5 {fill:#7E483C}
    .fil7 {fill:#78A437}
   ]]>
  </style>
 </defs>
  <path class="fil0 str0" d="m488 1130c-65 272 472 201 674 178 64-7 199-47 217-107l39-127c11-40-80 11-94 13l-456 72c-76 12-217-14-292-21l-56-5c21 2-32 1-32-3z"/>
  <path class="fil1" d="m504 1213c-2 73 138 118 276 116h37c24 0 45 0 68-1 100-3 186-14 275-24 63-8 197-44 215-104l6-18c14-39-137 88-151 90l-298 30c-77 8-406 12-401-64l2-23c1-21-28 1-29-2z"/>
  <path class="fil2 str0" d="m430 1176c-14-2-16 0-26 1-8 2-30 18-35 24-7 8-18 14-18 28 0 3 3 8 7 8 12 2 21-21 34-28 5-2 15-10 19-14 3-3 15-16 19-19z"/>
  <path class="fil3" d="m423 1179c-14-2-18 19-29 21-7 1-16 12-21 18-7 8-6 7-16 10-3 1-1 6 3 6 14-2 20-23 32-27 5-2 12-9 16-13 3-3 11-12 15-15z"/>
  <path class="fil2 str0" d="m502 1160c-9 2-27 12-35 18-18 14-27 37-27 65 0 17 35-5 39-11 6-10 3-11 13-20 20-16 34-30 58-43 16-8-15-8-22-10-8-3-9-4-18-4-5 0-7 7-8 5z"/>
  <path class="fil3" d="m467 1226c-18 13-19-13-24 14-3 17 30-5 34-10 6-11 4-12 14-21 19-16 14-14 34-28 15-11-8-1-16-3-7-3-22 17-29 23-5 5-6 19-13 25z"/>
  <path class="fil2 str0" d="m604 1170c54 0-15 42-13 69 0 2 12 9 14 12 2 2 20 11 24 11 2 0 17-21 22-24 14-12 11 19 27-1 18-23 36 21 42-22 2-17 17 7 20 8 18 2 4 25 42-2 8-6 45-25 56-17 24 18 73 24 109 7 54-25-94-26-110-28-43-3-85-4-129-4-31 0-54-4-78-11-4-1-24-1-26 2z"/>
  <path class="fil3" d="m596 1238c0 1 9 8 11 10 2 3 18 10 22 10 2 0 18-20 22-24 15-11 11 19 27 0 19-23 36 20 41-23 3-18 19 8 21 8 18 2 3 25 41-2 8-5 42-22 54-15 26 15 31 18 65 5-18 4-72 6-41-15-35-8-77 31-94 23-29-15-46-18-60-6-22 18-45 25-69 18-14-3-41-3-40 11z"/>
  <path class="fil2 str0" d="m884 1234c0 25-84 47-46 71 20 12 43-13 51-29 6-13 24-51-5-42z"/>
  <path class="fil3" d="m855 1294c1 23-40-14-16 8 18 15 37-10 46-26 7-12-21 19-30 18z"/>
  <path class="fil2 str0" d="m1009 1191c27 41 48 31 98 8 6-2 45-12 49-10 8 5-41 53 12 53 28 0 57-29 78-29 25 0 28 4 50-20 17-18 36-25 62-25 13 0 21-41 24-49 12-31-40 6-55 15-30 19-106 35-145 35-33 0-149 3-173 22z"/>
  <path class="fil3" d="m1057 1196c35 0 1 18 44 3 6-3 55-15 59-13 8 5-43 52 10 52 28 0 54-29 75-29 25 0 29 3 52-22 17-17 34-20 60-22 13-1 17-31 20-39 12-31-13 18-28 28-35 19-131 71-142 38-6-19-143 6-150 4z"/>
  <path class="fil2 str0" d="m1383 1209c-4 19-12 34-12 54 0 15 5 24 12 36 2 3 17 12 21 6 3-5 6-40 5-48-3-10-8-17-14-27-2-5-9-17-12-21z"/>
  <path class="fil3" d="m1396 1292c-4 19-17-44-17-24 0 15 0 17 6 28 2 4 14 12 17 6 3-5 5-28 3-36-2-11 0-1-4-16-1-5-2 45-5 42z"/>
  <path class="fil2 str0" d="m1413 1126c16 7 28 11 42 18 30 16 28 50 42 76 5 9 12 9 23 6 13-3 23-28 24-41 1-15-38-54-54-60-13-5-31-11-47-7-9 2-23 5-30 8z"/>
  <path class="fil3" d="m1513 1164c16 7-10 8-5 19 34 16-22 7-10 33 4 9 11 10 22 7 13-3 21-23 21-35 1-16-13-21-25-32-11-9-16-21-32-17-9 2 14 24 29 25z"/>
  <path class="fil2 str0" d="m1479 1042c33 0 74 15 74 42 0 16-23 58 19 43 12-4 31-37 23-54-10-19-24-52-48-60-35-12-53-9-68 29z"/>
  <path class="fil3" d="m1498 1041c33 5 59 21 57 41-1 17-19 66 21 39 11-7 2-1-14-6-21-6 13-54-11-62-35-12-38-50-53-12z"/>
  <path class="fil4 str0" d="m538 985c-198 128-152 168 55 192 235 28 445 24 678-12 85-14 231-127 41-135l-454-20c-90-4-237-51-320-25z"/>
  <path class="fil5" d="m552 1108c-223-3-117 47 38 64 243 28 445 31 678-10 81-14 202-99 19-65l-428 79c-89 17-222-61-307-68z"/>
  <path class="fil6 str0" d="m420 904c-48 5-85 5-94 62-3 15 37 7 48 2 14-7 4-1-2 6-20 24-80 7-80 54 0 46 58 16 82 6 26-12 53-67 29-19-26 51 28 22 50 10 34-18 6-16 6 17 0 39 61 25 68-12 0-2 10 22 24 22 29 0 57-10 24-27-12-6-20-39-20-53 0-15-49-20-72-21-31-3-48-24-63-47z"/>
  <path class="fil7" d="m390 959c-21-11-53-51-62 6-3 16 35 6 46 1 14-7 4 2-1 9-20 24-79 6-79 52s56 15 80 4c26-11 55-65 31-17-26 52 26 20 48 8 34-18 9-14 9 19 0 36 58 20 65-11 0-2 10 21 25 19 24-3 47-1 20-18-11-8-35-8-35-22 0-15-64-8-86-9-23-2-45-20-88 2-4 2 31-37 27-43z"/>
  <path class="fil8 str0" d="m555 960c3 35 21 94 76 96 44 1 83 3 125 0 101-8-22-53-44-63-9-5-64-19-73-19-30 0-52-14-84-14z"/>
  <path class="fil9" d="m566 997c11 33 28 54 72 56 45 3 75 7 117 0 99-16-38-10-60-15-10-3-50-11-59-11-30 0-38-30-70-30z"/>
  <path class="fil6 str0" d="m799 1043c-19 23-61 4-72 33-5 12-25 59 6 59 11 0 67-5 70-2 7 7 9 45 30 36 18-7 30-7 53-9 21-2 27 13 41 8l77-28c38-14-6-29-22-26-36 7-67-6-97-14-31-8-63-47-86-57z"/>
  <path class="fil7" d="m761 1115c-27 5-20-68-31-39-5 12-26 57 5 57 11 0 66-6 68-3 8 7 10 44 32 36 17-7 28-6 51-8 21-2 27 12 41 7l72-27c38-14-23 3-39 6-36 7-119 16-138-11-17-26-36-25-61-18z"/>
  <path class="fil6 str0" d="m1148 1063c0 28 20 48 48 45 46-4 20-23 42-45 1-1 7 23 7 29 0 29 36 23 55 16 19-6 36-32 49-47 19-24 53 3 64 2 5-1-3-14-3-14-3-12 30 11 45 10 24-1-19-27-26-37-9-13-25-16-36-26-6-7 42 2 47 3 18 1 27 2 41-6 5-3-21-21-22-21-3-4 55 8 51-19-5-48-56-82-102-85-24-1-38 50-38 76 0 46-52 88-102 88-26 0-57-14-68-12-2 0-44 39-52 43z"/>
  <path class="fil7" d="m1151 1070c3 27 17 36 44 35 46-1 21-23 43-45 1-1 9 24 9 30 0 29 35 21 53 15 20-7 36-32 49-48 18-23 51 5 62 4 4-1-3-14-3-14-3-12 29 11 44 10 25-2-19-24-25-33-10-15-30-17-38-27-6-10 47-3 51 0 17-1 22 1 37-6 5-2-20-20-21-21-4-4 55 9 52-17-6-48-64-89-61-44 1 9 29 26 24 42-3 10-64-4-68 5-17 45-123 197-145 113-7-26-31-15-37-6-30 44-62 3-70 7z"/>
  <path class="fil8 str0" d="m1378 885c-32 12-71 50-103 63-26 11-48 38-64 59-11 14 17 20 31 21 45 6 77 2 108-40 12-15 22-32 21-51 0-6 8-52 7-52z"/>
  <path class="fil10" d="m1372 911c-32 12-29 57-62 71-25 10-49 13-66 34-11 14 8 11 22 12 51-3 68-19 86-47 10-16 10-16 16-34 1-3 0-25 4-36z"/>
  <path class="fil11 str0" d="m781 566c7-32 15-131-16-132-23-2-62 79-131 70-29-4-64-8-57-55 10-65 100-112 150-129 44-15 74-1 96-22 64-60 171-90 262-56 20 8 146-8 194 34 107 93 38 242-177 140-35-17-41 38-78 102-27 45 16 77-54 77-42 0-160-10-189-29z"/>
  <path class="fil12 str0" d="m1630 522c52 55 207 89 74-15-71-55-188-151-269-198-78-45-68-123-133-183-8-8-72-55-82-55-17 1 70 86 93 104 31 23-57-44-73-53-78-45 7 18 29 36 131 105-133-76-72-21 73 68 130 101 10 22-83-54 22 41 48 66 38 38 82 28 97 41 50 42 229 222 278 256z"/>
  <path class="fil12 str0" d="m516 332c28-25 136-104 133-135-10-86-194 47-211 89-32 84-17 98-97 143-42 24-239 152-222 181 22 37 26 31 59 11 32-20 156-132 338-289z"/>
  <path class="fil13 str0" d="m747 443c20-17 38-28 58-44 21-17 40-26 70-26"/>
  <path class="fil13 str0" d="m1107 418c-31-11-62-28-97-28-24 0-27 3-45 10-7 3-31 19-32 27"/>
  <path class="fil13 str0" d="m827 294c-3 3-6 7-9 10-2 1-6 6-7 8-1 3-6 7-7 9"/>
  <path class="fil13 str0" d="m1107 244c-7 2-19 1-25 3-10 4-22 7-31 8-17 2-29 7-48 8-5 0-17 1-26 1h-23"/>
  <path class="fil14 str0" d="m1324 684c20-34 54-91 62-114 5-13 24-3 35 3 8 4 58 7 41 33-16 26-26 57-42 83-3 5-8 11-11 16-8 12-80-7-85-21z"/>
  <path class="fil15 str0" d="m1415 501c-31-51 66-219 143-190 35 12-5 75-7 89 0 1 28-40 52-49 27-9 55-7 54 24-1 20-30 36-39 50-20 31 50-55 66-37 16 17 29 36-9 74-20 20-52 28-77 37-13 5-46 12-54 4-14-15-10 51-46 37-20-8-69-42-83-39z"/>
  <path class="fil15 str0" d="m1461 493c-50-16-61-2-84 34-3 5-2 41 5 41 24 2 95 54 123 26 14-15 30-45 12-62-4-5-51-36-56-39z"/>
  <path class="fil13 str0" d="m1522 457c5 5 18 21 18 28 0 8-1 12-4 20"/>
  <path class="fil15 str0" d="m1467 384c-32 7-61 28-30 62 24 26 51 27 70-3 1-2 6 8 8 10 17 16 51 7 71 4 22-2 48-18 32-35-9-8-59-37-65-37-11 0-73-5-86-1z"/>
  <path class="fil14 str0" d="m523 761c-16-30-43-68-68-92-11-12-41-67-52-62-13 5-23 7-34 14-25 16-15 11-7 38 9 32 45 76 71 100 8 7 31 33 41 27 8-5 40-23 49-25z"/>
  <path class="fil15 str0" d="m384 548c23-33 54-33 26-78-5-8-24-11-24-20 0-53-39-83-98-83-25 0-27 29-35 42-11 18-24 2-39 17-4 4-11 29-14 29-36 0-35 35-35 60 0 29 55 71 86 71 23 0 125-18 133-38z"/>
  <path class="fil15 str0" d="m359 538c-30 0-63 32-63 64 0 33-3 40 28 50 46 16 91-26 106-56 7-14-8-42-17-51-11-11-40-8-54-7z"/>
  <path class="fil13 str0" d="m394 458c-11-1-21-10-39-10-55 0-115 14-122 66-5 40 31 29 56 25 29-4 63-39 85-39"/>
  <path class="fil13 str0" d="m257 402c-4 11-11 23-3 35 3 4 18 25 21 25"/>
  <path class="fil13 str0" d="m203 449c-1 7-1 17-1 23 0 8 14 17 21 17 6 0 12 1 19 1"/>
  <path class="fil16" d="m1048 240c-21 6-57 19-76 19-6 0-22-1-27 1-8 6 3 9 10 11 30 8 68 13 99 1 14-6 45-14 61-14 0 0-19-8-24-9-17-5-26-3-43-9z"/>
  <path class="fil16" d="m792 482c0 8-6 37 1 42 6 4 52 50 67 34 17-17 60-30 78-8 36 45 17 12 42-19 7-8 23-3 34-4 5-1 34-70 22-57-29 31-163 22-185-6-29-37-10 22-59 18z"/>
  <path class="fil16" d="m1040 376c16 0 49 19 66 27 16 8 53 27 73 29 22 3 74 11 92-1 34-22 38-21 38-75 0-3 0-8-1-10-11-19-10 23-21 31-40 32-82 20-132 9-22-5-52-1-76-10-5-1-34-3-39 0z"/>
  <path class="fil17" d="m1425 568c-49-14-18-63-45-38-5 5-3 34 3 35 25 3 92 51 119 27 15-14-20 5-38-13-4-4-35-9-39-11z"/>
  <path class="fil17" d="m1473 444c-49-14-16-57-44-32-6 6 8 29 14 33 8 12 40 18 50 6 10-11 20-13 4-28-4-5-20 23-24 21z"/>
  <path class="fil17" d="m1649 462c-60 25-57 24-82 36-7 3 40-12 49-14 7 1 43-11 54-25 5-6 19-15 23-39 1-6-40 45-44 42z"/>
  <path class="fil17" d="m382 625c-60 25-48 1-72 13-7 3 30 14 39 12 7 1 44-17 55-31 5-5 19-12 22-36 1-6-40 44-44 42z"/>
  <path class="fil17" d="m232 556c-48-44-36-26-58-43-6-5 13 29 19 36 2 7 22 19 40 23 6 1 36 6 59 0 6-2-60-11-60-16z"/>
  <path class="fil18" d="m476 266c-9 8-18 21-22 34-12 46 42-26 54-37 15-13 34-28 47-40 5-3 13-11 16-16 5-8-20 4-21 4-19 7-25 15-43 28-6 4-26 26-31 27z"/>
  <path class="fil18" d="m1246 202c13 10 19 17 30 26 12 8 49 19 64 21 8 1 36 21 32 17-9-9-7-14-22-20-18-6-39-16-58-18-5-1-42-23-46-26z"/>
  <path class="fil0 str0" d="m853 567c-49-115-243 40-260 105-25 96-182 46-180 194 2 158 238 27 426 206 99 95 328 5 372-68 47-76 222-122 234-188 12-68-7-119-47-136-17-7-43-4-57-21-15-17-85-161-263-162-29-1-22 22-57 32-13 4-41-21-60 47-5 16-24-87-108-9z"/>
  <path class="fil11 str0" d="m779 790c1-16 30-105 69-144 41-41 65-40 84-3 16 32 17 99 22 118 1 4-22-150 89-150 58 0 74 65 112 103 25 26-48 66-70 66-25 0-50 38-63 42-27 8-94 30-120 5 0-1-60-28-61-28-13 0-54-2-62-9z"/>
  <path class="fil14 str0" d="m600 845c115 38 259 52 403 52 42 0 109-16 152-26 47-11 86-42 129-54 56-16-48 41-52 45-31 31-88 124-129 140-93 37-206 65-280-9-13-13-105-70-110-87-5-14-110-27-113-61z"/>
  <path class="fil14 str0" d="m825 794c1-19 3-36 9-53 4-11 25-38 37-39 10-2 22 3 26 12 8 18 16 42 1 63-5 9-8 15-15 25-9 13-6 14-20 6-4-3-30-10-38-14z"/>
  <path class="fil11 str0" d="m851 779c0-9 1-20 5-26 1-3 7-16 12-14 5 3 5 6 6 14 0 8-4 20-6 25-2 3-16 9-17 1z"/>
  <path class="fil14 str0" d="m1101 776c-8-29-6-46-27-67-5-6-16-18-23-19-10-3-11-6-18 3-19 23-17 61-6 88 3 7 8 16 14 20 8 4 18-15 31-18 5-1 26-5 29-7z"/>
  <path class="fil11 str0" d="m1055 726c-3 2-4 4-3 10 1 5 6 16 9 21 2 3 3 5 6 7 10 6 10-11 6-22-3-9-12-18-18-16z"/>
  <path class="fil11 str0" d="m906 896v28c1 5 5 9 10 9h37c9 0 25 2 25-7 0-7 1-15 1-23 0-6-5-5-12-6h-31l-30-1z"/>
  <path class="fil11 str0" d="m986 897l2 28c0 5 37 3 41 3 7 0 32-3 33-6 3-3 2-20 0-23-4-10 1-6-13-5-12 1-17 1-30 3-10 1-20 1-33 0z"/>
  <path class="fil4 str0" d="m856 1019c6-26 24-46 51-57 21-8 45 10 56 21 4 4 14 11 20 16 11 7 1 7 10-7 12-19 71-41 95-26 6 3 11 24 13 31 2 6-44 16-50 20-19 11-72 21-98 21-44 0-64-7-97-19z"/>
  <path class="fil13 str0" d="m651 740c0 71-64 123-133 123"/>
  <path class="fil13 str0" d="m1321 726c-3 15-7 25-13 41-4 11-8 50 4 58 10 8 37 19 46 24"/>
  <path class="fil13 str0" d="m1147 748c12 0 29-6 43-1 33 13 70 35 112 35"/>
  <path class="fil13 str0" d="m785 795c-29 0-62 20-62 50"/>
  <path class="fil13 str0" d="m820 622c4-7 7-13 11-20 3-6 6-14 10-19 2-1 5-7 6-9 4-6 3-8 8-12"/>
  <path class="fil13 str0" d="m1026 528c7 2 11 9 15 16 7 11 14 28 16 40 1 5 3 23 3 28"/>
  <path class="fil13 str0" d="m1359 670c-22 0-52 1-62 10-5 4-13 17-16 18"/>
  <path class="fil5" d="m860 1018c13-22 23-1 48-7 19-5 30-6 42 2 35 27 68-6 118-19 6-1 24-5 26 2 2 6-37 15-43 19-19 10-61 19-100 21-45 2-58-6-91-18z"/>
  <path class="fil1" d="m485 867c26 4 26-4 54-9 34-7 43-6 68-28 24-21 15-13 36-41 13-18 6-73 0-60-6 11-10 103-90 105-14 0-60 16-68 33z"/>
  <path class="fil1" d="m1383 832c-27 4 12 19-16 14-34-6-55-17-57-33-7-36 1-43 3-49 0-24 34-59 39-47 6 11-78 102 2 104 14 0 20-5 29 11z"/>
  <path class="fil1" d="m722 844c-64 10 4-34 9-47 21-16 37-18 42-5 6 11-22-1-34 17-8 11-19 17-17 35z"/>
  <path class="fil1" d="m834 1058c27 4 59 33 86 42 32 12 135-2 160-24 24-22 35-16 55-44 14-18-2-9-15-3-26 11-59 28-87 36-23 7-50 11-76 11-13 0-114-35-123-18z"/>
  <path class="fil16" d="m827 687c12-24 44-70 74-70 22 0 34 52 39 72 2 8 4 12 4 23 0 8-5-5-6-8-7-27-21-70-55-67-10 1-50 40-56 50z"/>
  <path class="fil16" d="m962 696c3-25 28-74 64-81 25-5 63 14 75 32 4 7 15 21 15 32 0 8-19-15-25-21-18-20-39-32-69-24-9 2-55 52-60 62z"/>
  <path class="fil19" d="m667 610c-6 5-11 10-15 14-4 5-4 10-4 17 0 6 8 9 14 9 10 0 16-9 21-16 6-7 8-13 13-20 3-4 5-7 7-11 3-3 7-6 0-4-7 1-13 4-20 7-6 2-10 6-16 4z"/>
  <path class="fil19" d="m733 575c-4 5-4 10-4 17 0 6 7 9 14 9 10 0 14-5 20-13 5-6 3-5 9-12 16-22-11-18-20-14-6 2-16 9-19 13z"/>
  <path class="fil19" d="m633 713c5-3 6-8 8-14 2-7-5-11-11-13-10-3-15 1-22 7-7 5-5 4-12 10-22 17 5 20 16 19 5-1 17-5 21-9z"/>
  <path class="fil19" d="m728 656c4-3 1-5 3-9 1-5-3-7-8-9-7-2-8-2-14 3-5 3-4 3-9 7-8 11 9 10 12 11 4 0 13-1 16-3z"/>
  <path class="fil19" d="m1164 540c-6-2-13-8-19-5s-5 11-2 17c4 9 11 6 21 8 8 2 5 5 13 7 27 5 12-17 5-24-4-4-12-2-18-3z"/>
  <path class="fil19" d="m1224 581c-6-2-6-1-12 2s-13 3-10 10c4 9 3 9 12 11 8 2 14 2 23 4 13-1-1-14-3-19s-5-7-10-8z"/>
  <path class="fil1" d="m851 588c16-15 28-26 49-35 12-6 25 5 30 15 3 5 18 21 6 13-10-7-30-11-47-9-2 0-16 6-18 8-5 3-10 5-20 8z"/>
  <path class="fil1" d="m976 568c3-5 6-12 9-15 9-7 13-22 27-13 4 3 7 2 11 8 1 3 6 10 8 12 9 9-1 5-6 2-6-3-14-8-25-7 0 0-22 11-24 13z"/>
</svg>
